<svg width="6" height="10" viewBox="0 0 6 10" fill="none" xmlns="http://www.w3.org/2000/svg">
<path d="M2.01465 4.04883H2.8877C3.19629 4.04883 3.4502 3.99609 3.64941 3.89062C3.85254 3.78125 4.00293 3.63281 4.10059 3.44531C4.20215 3.25391 4.25293 3.0332 4.25293 2.7832C4.25293 2.53711 4.20801 2.32422 4.11816 2.14453C4.02832 1.96094 3.8916 1.82031 3.70801 1.72266C3.52832 1.62109 3.29785 1.57031 3.0166 1.57031C2.79004 1.57031 2.58105 1.61523 2.38965 1.70508C2.20215 1.79492 2.05176 1.92383 1.93848 2.0918C1.8291 2.25586 1.77441 2.45312 1.77441 2.68359H0.22168C0.22168 2.22266 0.342773 1.81836 0.584961 1.4707C0.831055 1.11914 1.16309 0.84375 1.58105 0.644531C1.99902 0.445312 2.46582 0.345703 2.98145 0.345703C3.54395 0.345703 4.03613 0.439453 4.45801 0.626953C4.88379 0.810547 5.21387 1.08203 5.44824 1.44141C5.68652 1.80078 5.80566 2.24609 5.80566 2.77734C5.80566 3.03125 5.74512 3.28516 5.62402 3.53906C5.50684 3.78906 5.33301 4.01562 5.10254 4.21875C4.87598 4.41797 4.59668 4.58008 4.26465 4.70508C3.93652 4.82617 3.55957 4.88672 3.13379 4.88672H2.01465V4.04883ZM2.01465 5.24414V4.41797H3.13379C3.61426 4.41797 4.03027 4.47461 4.38184 4.58789C4.7373 4.69727 5.03027 4.85352 5.26074 5.05664C5.49121 5.25586 5.66113 5.48828 5.77051 5.75391C5.88379 6.01953 5.94043 6.30469 5.94043 6.60938C5.94043 7.00781 5.86621 7.36328 5.71777 7.67578C5.56934 7.98438 5.36035 8.24609 5.09082 8.46094C4.8252 8.67578 4.5127 8.83984 4.15332 8.95312C3.79395 9.0625 3.40527 9.11719 2.9873 9.11719C2.62402 9.11719 2.27051 9.06836 1.92676 8.9707C1.58691 8.86914 1.28027 8.71875 1.00684 8.51953C0.733398 8.31641 0.516602 8.0625 0.356445 7.75781C0.196289 7.44922 0.116211 7.0918 0.116211 6.68555H1.66895C1.66895 6.91992 1.72559 7.12891 1.83887 7.3125C1.95605 7.49609 2.11621 7.64062 2.31934 7.74609C2.52637 7.84766 2.75879 7.89844 3.0166 7.89844C3.30176 7.89844 3.5459 7.84766 3.74902 7.74609C3.95605 7.64062 4.11426 7.49219 4.22363 7.30078C4.33301 7.10547 4.3877 6.87305 4.3877 6.60352C4.3877 6.2832 4.32715 6.02344 4.20605 5.82422C4.08496 5.625 3.91113 5.47852 3.68457 5.38477C3.46191 5.29102 3.19629 5.24414 2.8877 5.24414H2.01465Z" fill="#74767A"/>
</svg>
