<svg width="24" height="24" viewBox="0 0 24 24" fill="none" xmlns="http://www.w3.org/2000/svg">
<path fill-rule="evenodd" clip-rule="evenodd" d="M23.8216 8.00475C23.8259 8.43929 22.68 8.79657 22.2407 8.79315C22.2089 8.79154 22.1771 8.78993 22.1329 8.78138L21.3642 8.72348L19.9178 11.5393C19.8692 11.6564 19.841 11.7368 19.7263 11.7373L19.3313 11.7424C19.0702 11.7417 19.0973 11.6928 19.1277 11.5495L19.6848 9.04109L19.6737 8.61879L19.2798 8.59249C18.8019 8.59971 18.2136 8.48172 17.74 8.36326L17.0756 9.35556C16.9681 9.52005 16.9988 9.55309 16.8841 9.55356C16.623 9.5529 16.6684 9.53002 16.6805 9.36068L16.861 8.18016C16.8564 8.12957 16.871 8.07366 16.9039 8.04386C16.8982 8.02469 16.8732 8.01083 16.88 7.99858C16.8742 7.97941 16.9003 7.96185 16.9332 7.93204C16.8832 7.90433 16.866 7.84681 16.8614 7.79621L16.6468 6.62082C16.6272 6.44987 16.5897 6.42908 16.8383 6.42282C16.953 6.42234 16.9326 6.45908 17.0419 6.61569L17.7522 7.63371C18.2151 7.50614 18.7916 7.40951 19.2627 7.41454L19.652 7.39024L19.641 6.96794L19.0072 4.45569C18.974 4.30923 18.9376 4.25703 19.1987 4.25769L19.5937 4.25257C19.7084 4.25209 19.7312 4.32879 19.7905 4.45769L21.3376 7.26808L22.1037 7.21255C22.148 7.22109 22.1866 7.21046 22.2184 7.21207C22.6577 7.21549 23.8174 7.5702 23.8216 8.00475ZM0.176011 15.7462C0.18693 15.3118 1.34454 14.9947 1.78348 15.0135C1.81519 15.0162 1.84691 15.0189 1.89087 15.029L2.65702 15.1137L4.20084 12.3501C4.25348 12.2347 4.28449 12.1554 4.39909 12.1589L4.79407 12.1675C5.05498 12.1773 5.02614 12.2253 4.99079 12.3674L4.34654 14.8549L4.34283 15.2773L4.73563 15.3173C5.21349 15.3268 5.79727 15.4653 6.26645 15.6002L6.9651 14.6317C7.0783 14.471 7.04876 14.4369 7.16336 14.4405C7.42427 14.4502 7.37814 14.4715 7.36008 14.6403L7.13852 15.8138C7.14139 15.8646 7.1248 15.9199 7.09091 15.9486C7.09595 15.9679 7.12046 15.9826 7.11325 15.9946C7.11829 16.014 7.09161 16.0307 7.05773 16.0593C7.10674 16.0887 7.12186 16.1468 7.12473 16.1975L7.29814 17.3797C7.31179 17.5512 7.34854 17.5733 7.09988 17.5709C6.98528 17.5674 7.00692 17.5314 6.90317 17.371L6.22879 16.3289C5.76171 16.4402 5.18221 16.5167 4.71156 16.4952L4.32162 16.5059L4.31792 16.9283L4.86363 19.4611C4.8917 19.6087 4.92628 19.6621 4.66537 19.6523L4.2704 19.6437C4.1558 19.6401 4.13564 19.5627 4.08089 19.4318L2.63287 16.5691L1.86526 16.5979C1.82129 16.5878 1.78237 16.5971 1.75066 16.5944C1.31172 16.5756 0.165093 16.1807 0.176011 15.7462ZM1.99999 8.99997C1.44771 8.99997 0.999994 8.55226 0.999994 7.99997C0.999994 7.44769 1.44771 6.99997 1.99999 6.99997C2.55228 6.99997 2.99999 7.44769 2.99999 7.99997C2.99999 8.55226 2.55228 8.99997 1.99999 8.99997ZM3.99999 8.24997C3.86192 8.24997 3.74999 8.13804 3.74999 7.99997C3.74999 7.8619 3.86192 7.74997 3.99999 7.74997H4.99999C5.13807 7.74997 5.24999 7.8619 5.24999 7.99997C5.24999 8.13804 5.13807 8.24997 4.99999 8.24997H3.99999ZM6.49999 8.24997C6.36192 8.24997 6.24999 8.13804 6.24999 7.99997C6.24999 7.8619 6.36192 7.74997 6.49999 7.74997H7.49999C7.63807 7.74997 7.74999 7.8619 7.74999 7.99997C7.74999 8.13804 7.63807 8.24997 7.49999 8.24997H6.49999ZM8.99999 8.24997C8.86192 8.24997 8.74999 8.13804 8.74999 7.99997C8.74999 7.8619 8.86192 7.74997 8.99999 7.74997H9.99999C10.1381 7.74997 10.25 7.8619 10.25 7.99997C10.25 8.13804 10.1381 8.24997 9.99999 8.24997H8.99999ZM11.5 8.24997C11.3619 8.24997 11.25 8.13804 11.25 7.99997C11.25 7.8619 11.3619 7.74997 11.5 7.74997H12.5C12.6381 7.74997 12.75 7.8619 12.75 7.99997C12.75 8.13804 12.6381 8.24997 12.5 8.24997H11.5ZM14 8.24997C13.8619 8.24997 13.75 8.13804 13.75 7.99997C13.75 7.8619 13.8619 7.74997 14 7.74997H15C15.1381 7.74997 15.25 7.8619 15.25 7.99997C15.25 8.13804 15.1381 8.24997 15 8.24997H14ZM22 17.0108C21.4477 17.0108 21 16.5631 21 16.0108C21 15.4585 21.4477 15.0108 22 15.0108C22.5523 15.0108 23 15.4585 23 16.0108C23 16.5631 22.5523 17.0108 22 17.0108ZM19.2552 16.2608H18.2552C18.1172 16.2608 18.0052 16.1489 18.0052 16.0108C18.0052 15.8727 18.1172 15.7608 18.2552 15.7608H19.2552C19.3933 15.7608 19.5052 15.8727 19.5052 16.0108C19.5052 16.1489 19.3933 16.2608 19.2552 16.2608ZM16.7552 16.2608H15.7552C15.6172 16.2608 15.5052 16.1489 15.5052 16.0108C15.5052 15.8727 15.6172 15.7608 15.7552 15.7608H16.7552C16.8933 15.7608 17.0052 15.8727 17.0052 16.0108C17.0052 16.1489 16.8933 16.2608 16.7552 16.2608ZM14.2552 16.2608H13.2552C13.1172 16.2608 13.0052 16.1489 13.0052 16.0108C13.0052 15.8727 13.1172 15.7608 13.2552 15.7608H14.2552C14.3933 15.7608 14.5052 15.8727 14.5052 16.0108C14.5052 16.1489 14.3933 16.2608 14.2552 16.2608ZM11.7552 16.2608H10.7552C10.6172 16.2608 10.5052 16.1489 10.5052 16.0108C10.5052 15.8727 10.6172 15.7608 10.7552 15.7608H11.7552C11.8933 15.7608 12.0052 15.8727 12.0052 16.0108C12.0052 16.1489 11.8933 16.2608 11.7552 16.2608ZM9.25524 16.2608H8.25524C8.11716 16.2608 8.00524 16.1489 8.00524 16.0108C8.00524 15.8727 8.11716 15.7608 8.25524 15.7608H9.25524C9.39331 15.7608 9.50524 15.8727 9.50524 16.0108C9.50524 16.1489 9.39331 16.2608 9.25524 16.2608Z" fill="#11397E"/>
</svg>
