<svg width="7" height="9" viewBox="0 0 7 9" fill="none" xmlns="http://www.w3.org/2000/svg">
<path d="M6.09863 7.78125V9H0.321289V7.95703L3.09277 4.96289C3.38184 4.63477 3.61035 4.34961 3.77832 4.10742C3.94629 3.86523 4.06543 3.64648 4.13574 3.45117C4.20996 3.25195 4.24707 3.0625 4.24707 2.88281C4.24707 2.62109 4.2002 2.39258 4.10645 2.19727C4.0127 1.99805 3.87598 1.84375 3.69629 1.73438C3.52051 1.625 3.30371 1.57031 3.0459 1.57031C2.76074 1.57031 2.5166 1.63672 2.31348 1.76953C2.11426 1.89844 1.96191 2.07812 1.85645 2.30859C1.75488 2.53906 1.7041 2.80273 1.7041 3.09961H0.151367C0.151367 2.5957 0.268555 2.13672 0.50293 1.72266C0.737305 1.30469 1.07324 0.970703 1.51074 0.720703C1.94824 0.470703 2.46777 0.345703 3.06934 0.345703C3.65527 0.345703 4.15137 0.443359 4.55762 0.638672C4.96387 0.830078 5.27246 1.10352 5.4834 1.45898C5.69434 1.81445 5.7998 2.23828 5.7998 2.73047C5.7998 3.00391 5.75488 3.27344 5.66504 3.53906C5.5752 3.80469 5.44824 4.06836 5.28418 4.33008C5.12402 4.58789 4.93262 4.84961 4.70996 5.11523C4.4873 5.38086 4.23926 5.65234 3.96582 5.92969L2.30176 7.78125H6.09863Z" fill="white"/>
</svg>
