<svg width="0" height="0" class="hidden">
  <symbol fill="none" xmlns="http://www.w3.org/2000/svg" viewBox="0 0 5 9" id="one">
    <path d="M4.30566 0.445312V9H2.75293V2.25586L0.696289 2.93555V1.68164L4.12988 0.445312H4.30566Z" fill="white"></path>
  </symbol>
  <symbol fill="none" xmlns="http://www.w3.org/2000/svg" viewBox="0 0 7 9" id="two">
    <path d="M6.09863 7.78125V9H0.321289V7.95703L3.09277 4.96289C3.38184 4.63477 3.61035 4.34961 3.77832 4.10742C3.94629 3.86523 4.06543 3.64648 4.13574 3.45117C4.20996 3.25195 4.24707 3.0625 4.24707 2.88281C4.24707 2.62109 4.2002 2.39258 4.10645 2.19727C4.0127 1.99805 3.87598 1.84375 3.69629 1.73438C3.52051 1.625 3.30371 1.57031 3.0459 1.57031C2.76074 1.57031 2.5166 1.63672 2.31348 1.76953C2.11426 1.89844 1.96191 2.07812 1.85645 2.30859C1.75488 2.53906 1.7041 2.80273 1.7041 3.09961H0.151367C0.151367 2.5957 0.268555 2.13672 0.50293 1.72266C0.737305 1.30469 1.07324 0.970703 1.51074 0.720703C1.94824 0.470703 2.46777 0.345703 3.06934 0.345703C3.65527 0.345703 4.15137 0.443359 4.55762 0.638672C4.96387 0.830078 5.27246 1.10352 5.4834 1.45898C5.69434 1.81445 5.7998 2.23828 5.7998 2.73047C5.7998 3.00391 5.75488 3.27344 5.66504 3.53906C5.5752 3.80469 5.44824 4.06836 5.28418 4.33008C5.12402 4.58789 4.93262 4.84961 4.70996 5.11523C4.4873 5.38086 4.23926 5.65234 3.96582 5.92969L2.30176 7.78125H6.09863Z" fill="white"></path>
  </symbol>
  <symbol fill="none" xmlns="http://www.w3.org/2000/svg" viewBox="0 0 6 10" id="three">
    <path d="M2.01465 4.04883H2.8877C3.19629 4.04883 3.4502 3.99609 3.64941 3.89062C3.85254 3.78125 4.00293 3.63281 4.10059 3.44531C4.20215 3.25391 4.25293 3.0332 4.25293 2.7832C4.25293 2.53711 4.20801 2.32422 4.11816 2.14453C4.02832 1.96094 3.8916 1.82031 3.70801 1.72266C3.52832 1.62109 3.29785 1.57031 3.0166 1.57031C2.79004 1.57031 2.58105 1.61523 2.38965 1.70508C2.20215 1.79492 2.05176 1.92383 1.93848 2.0918C1.8291 2.25586 1.77441 2.45312 1.77441 2.68359H0.22168C0.22168 2.22266 0.342773 1.81836 0.584961 1.4707C0.831055 1.11914 1.16309 0.84375 1.58105 0.644531C1.99902 0.445312 2.46582 0.345703 2.98145 0.345703C3.54395 0.345703 4.03613 0.439453 4.45801 0.626953C4.88379 0.810547 5.21387 1.08203 5.44824 1.44141C5.68652 1.80078 5.80566 2.24609 5.80566 2.77734C5.80566 3.03125 5.74512 3.28516 5.62402 3.53906C5.50684 3.78906 5.33301 4.01562 5.10254 4.21875C4.87598 4.41797 4.59668 4.58008 4.26465 4.70508C3.93652 4.82617 3.55957 4.88672 3.13379 4.88672H2.01465V4.04883ZM2.01465 5.24414V4.41797H3.13379C3.61426 4.41797 4.03027 4.47461 4.38184 4.58789C4.7373 4.69727 5.03027 4.85352 5.26074 5.05664C5.49121 5.25586 5.66113 5.48828 5.77051 5.75391C5.88379 6.01953 5.94043 6.30469 5.94043 6.60938C5.94043 7.00781 5.86621 7.36328 5.71777 7.67578C5.56934 7.98438 5.36035 8.24609 5.09082 8.46094C4.8252 8.67578 4.5127 8.83984 4.15332 8.95312C3.79395 9.0625 3.40527 9.11719 2.9873 9.11719C2.62402 9.11719 2.27051 9.06836 1.92676 8.9707C1.58691 8.86914 1.28027 8.71875 1.00684 8.51953C0.733398 8.31641 0.516602 8.0625 0.356445 7.75781C0.196289 7.44922 0.116211 7.0918 0.116211 6.68555H1.66895C1.66895 6.91992 1.72559 7.12891 1.83887 7.3125C1.95605 7.49609 2.11621 7.64062 2.31934 7.74609C2.52637 7.84766 2.75879 7.89844 3.0166 7.89844C3.30176 7.89844 3.5459 7.84766 3.74902 7.74609C3.95605 7.64062 4.11426 7.49219 4.22363 7.30078C4.33301 7.10547 4.3877 6.87305 4.3877 6.60352C4.3877 6.2832 4.32715 6.02344 4.20605 5.82422C4.08496 5.625 3.91113 5.47852 3.68457 5.38477C3.46191 5.29102 3.19629 5.24414 2.8877 5.24414H2.01465Z" fill="white"></path>
  </symbol>
  <symbol fill="none" xmlns="http://www.w3.org/2000/svg" viewBox="0 0 7 9" id="four">
    <path d="M6.24512 5.88867V7.10742H0.0986328L0.0341797 6.16992L3.64941 0.46875H4.88574L3.5498 2.73633L1.61035 5.88867H6.24512ZM5.23145 0.46875V9H3.67871V0.46875H5.23145Z" fill="white"></path>
  </symbol>
</svg>
