<svg width="0" height="0" class="hidden">
  <symbol fill="none" xmlns="http://www.w3.org/2000/svg" viewBox="0 0 131 40" id="logo">
    <mask id="mask0_236_7239" maskUnits="userSpaceOnUse" x="0" y="0" width="114" height="40">
      <path d="M114 0H0V40H114V0Z" fill="white"></path>
    </mask>
    <g mask="url(#mask0_236_7239)">
      <path d="M34 26.262V23.405L21.25 16.262V8.4049C21.25 7.21921 20.245 4.8335 19 4.8335C17.755 4.8335 16.75 7.21921 16.75 8.4049V16.262L4 23.405V26.262L16.75 22.6907V30.5478L13 32.6907V34.8335L19 33.405L25 34.8335V32.6907L21.25 30.5478V22.6907L34 26.262Z" fill="#1e2756"></path>
      <path d="M1 20.3335C1 10.3971 9.06356 2.3335 19 2.3335C28.9366 2.3335 37 10.397 37 20.3335C37 30.2701 28.9366 38.3335 19 38.3335C9.06355 38.3335 1 30.2701 1 20.3335Z" stroke="#1e2756" stroke-width="2"></path>
      <path d="M50.7592 15.4404L53.8123 24.2978L53.2537 24.0537L54.4769 24.288L54.4094 25.167H50.3836L50.451 24.2685C50.7335 24.1383 51.0994 24.0276 51.5489 23.9365L51.3563 24.2002L48.7751 16.1044L48.3899 15.4892C48.7302 15.4567 49.1026 15.4372 49.5071 15.4306C49.9181 15.4176 50.3354 15.4209 50.7592 15.4404ZM49.7094 15.499L46.8778 24.2978L46.6562 24.0244L47.889 24.288L47.8216 25.167H44.7589L44.8263 24.3076C44.9483 24.236 45.1088 24.1709 45.3079 24.1123C45.5069 24.0472 45.7252 23.9886 45.9628 23.9365L45.356 24.2978L48.3899 15.4892L49.7094 15.499ZM46.7237 22.5791L47.0415 21.3682H51.6742L52.0016 22.5791H46.7237ZM56.6431 25.0205V15.6357H58.9546V25.0205H56.6431ZM55.7377 25.167L55.8052 24.3076C56.1134 24.1709 56.5147 24.0439 57.0091 23.9267L56.6431 24.9228V23.3896H58.9546V24.9228L58.6175 24.0048L59.8985 24.288L59.831 25.167H55.7377ZM59.8599 15.499L59.7925 16.3584C59.4843 16.4951 59.083 16.622 58.5886 16.7392L58.9546 15.7432V17.2764H56.6431V15.7432L56.9802 16.6611L55.6992 16.3779L55.7667 15.499H59.8599ZM68.0454 25.167L65.0889 21.2021L67.3906 20.5478L70.3184 24.2978L69.4518 24.0048L70.7424 24.249L70.6747 25.167H68.0454ZM65.3971 21.5732C64.7551 21.5732 64.068 21.5342 63.3361 21.456L63.4805 20.2842C64.206 20.3623 64.9027 20.4014 65.5705 20.4014C66.6173 20.4014 67.1407 19.7828 67.1407 18.5459C67.1407 17.361 66.643 16.7685 65.6475 16.7685H63.5287V15.499H65.7342C67.0053 15.499 67.9816 15.7432 68.6621 16.2314C69.3426 16.7132 69.6832 17.4098 69.6832 18.3212C69.6832 19.1156 69.4229 19.7698 68.9028 20.2842C68.3893 20.792 67.6476 21.1208 66.6778 21.2705L66.0716 21.5342C65.9686 21.5472 65.8594 21.557 65.7439 21.5634C65.6283 21.57 65.5127 21.5732 65.3971 21.5732ZM62.4981 25.0205V15.6357H64.8096V25.0205H62.4981ZM61.5928 25.167L61.6602 24.3076C61.9684 24.1709 62.3697 24.0439 62.8641 23.9267L62.4981 24.9228V23.3896H64.8096V24.9228L64.4918 24.0048L65.6765 24.288L65.609 25.167H61.5928ZM65.7149 15.499L65.6475 16.3584C65.3394 16.4951 64.938 16.622 64.4437 16.7392L64.8096 15.7432V17.2764H62.4981V15.7432L62.8352 16.6611L61.5542 16.3779L61.6217 15.499H65.7149ZM74.0069 25.2256L71.5025 16.3584L72.0515 16.6123L70.8286 16.3779L70.8956 15.499H74.9984L74.9313 16.3779C74.6743 16.4951 74.2699 16.6058 73.7176 16.71L73.9293 16.417L75.9426 24.4248L76.222 25.1767C75.9268 25.2093 75.5731 25.2288 75.1621 25.2353C74.7512 25.2484 74.3665 25.2451 74.0069 25.2256ZM76.222 25.1767L74.9984 25.0302L77.2812 15.8212L78.6008 15.831L76.222 25.1767ZM79.5831 25.2256L77.4357 16.4365L77.2812 15.8212C77.6021 15.7887 77.9492 15.7692 78.3214 15.7627C78.6942 15.7496 79.0597 15.7496 79.4194 15.7627L81.4997 24.415L81.7982 25.1767C81.503 25.2093 81.1499 25.2288 80.739 25.2353C80.328 25.2484 79.9428 25.2451 79.5831 25.2256ZM81.7982 25.1767L80.5562 25.0205L82.7805 16.3682L83.0409 16.6416L81.7022 16.3779L81.7693 15.499H84.8897L84.8227 16.3584C84.7004 16.4235 84.5399 16.4886 84.3407 16.5537C84.1481 16.6188 83.9298 16.6774 83.6859 16.7295L84.2737 16.3779L81.7982 25.1767ZM90.8414 15.4404L93.8948 24.2978L93.3359 24.0537L94.5588 24.288L94.4918 25.167H90.4659L90.533 24.2685C90.8157 24.1383 91.1819 24.0276 91.631 23.9365L91.4384 24.2002L88.857 16.1044L88.4718 15.4892C88.8123 15.4567 89.1845 15.4372 89.5895 15.4306C90.0004 15.4176 90.4173 15.4209 90.8414 15.4404ZM89.7913 15.499L86.9602 24.2978L86.7386 24.0244L87.9714 24.288L87.9037 25.167H84.8411L84.9088 24.3076C85.0304 24.236 85.1909 24.1709 85.3901 24.1123C85.5893 24.0472 85.8076 23.9886 86.0449 23.9365L85.4381 24.2978L88.4718 15.4892L89.7913 15.499ZM86.8057 22.5791L87.1239 21.3682H91.7566L92.084 22.5791H86.8057ZM97.7943 21.8076L95.0013 16.3682L95.5885 16.6123L94.3655 16.3779L94.4332 15.499H98.5551L98.488 16.3779C98.2309 16.4951 97.8266 16.6058 97.2743 16.71L97.4478 16.4658L99.7589 21.1338L100.086 21.7588L97.7943 21.8076ZM98.7286 21.749L101.339 16.3682L101.551 16.6416L100.202 16.3779L100.27 15.499H103.428L103.361 16.3584C103.239 16.4235 103.079 16.4886 102.879 16.5537C102.687 16.6188 102.468 16.6774 102.225 16.7295L102.87 16.3682L100.086 21.7588L98.7286 21.749ZM97.7845 25.0205V21.124H100.096V25.0205H97.7845ZM96.7253 25.167L96.793 24.3076C96.9791 24.2295 97.1875 24.1611 97.4189 24.1025C97.6563 24.0439 97.9002 23.9951 98.1507 23.956L97.7845 24.9228V23.3896H100.096V24.9228L99.7589 24.0146L101.194 24.288L101.127 25.167H96.7253ZM107.762 25.3232C106.49 25.3232 105.457 25.0302 104.661 24.4443C104.5 23.3831 104.461 22.4814 104.545 21.7392H105.537L106.674 24.1904L105.845 23.5361C106.539 23.9332 107.252 24.1318 107.984 24.1318C108.485 24.1318 108.87 24.0309 109.139 23.8291C109.409 23.6272 109.544 23.3408 109.544 22.9697C109.544 22.6572 109.438 22.4 109.226 22.1982C109.014 21.9899 108.671 21.8108 108.195 21.6611L107.078 21.3096C105.396 20.7822 104.555 19.8122 104.555 18.3994C104.555 17.4684 104.885 16.7262 105.547 16.1728C106.208 15.6194 107.097 15.3428 108.214 15.3428C109.235 15.3428 110.16 15.5576 110.988 15.9873C111.116 16.8727 111.155 17.6767 111.104 18.3994H110.074L109.13 16.4072L110.131 17.1298C109.38 16.7327 108.667 16.5342 107.993 16.5342C107.088 16.5342 106.635 16.8955 106.635 17.6182C106.635 17.9372 106.747 18.2041 106.972 18.4189C107.203 18.6338 107.573 18.8226 108.08 18.9853L109.197 19.3369C110.841 19.8577 111.663 20.805 111.663 22.1787C111.663 23.1422 111.309 23.9072 110.603 24.4736C109.903 25.04 108.956 25.3232 107.762 25.3232Z" fill="#1e2756"></path>
    </g>
  </symbol>

  <symbol fill="none" xmlns="http://www.w3.org/2000/svg" viewBox="0 0 32 22" id="american-express">
    <g clip-path="url(#clip0_881_750)">
      <path fill-rule="evenodd" clip-rule="evenodd" d="M19.671 12.756C19.88 12.882 20.015 13.058 20.015 13.378L20.017 13.379C20.017 13.829 19.717 14.054 19.537 14.126L19.517 14.134C19.667 14.188 19.787 14.288 19.847 14.368C19.938 14.508 19.953 14.634 19.955 14.884V15.439H19.295V15.089C19.295 15.0717 19.2952 15.0536 19.2953 15.0349C19.2968 14.8694 19.2988 14.6558 19.191 14.539C19.103 14.438 18.953 14.414 18.713 14.414H17.993V15.441H17.318V12.621H18.861C19.207 12.621 19.461 12.636 19.671 12.756ZM19.117 13.783L19.145 13.785L19.147 13.786C19.236 13.731 19.281 13.636 19.281 13.516C19.287 13.408 19.229 13.309 19.131 13.261C19.041 13.211 18.921 13.211 18.801 13.211H17.977V13.841H18.787C18.922 13.841 19.027 13.836 19.117 13.783ZM23 14.837H24.297C24.424 14.837 24.514 14.82 24.574 14.767C24.619 14.737 24.654 14.664 24.654 14.587C24.654 14.513 24.618 14.437 24.572 14.407C24.527 14.362 24.451 14.347 24.347 14.347C24.3083 14.3461 24.2691 14.3454 24.2296 14.3447C23.6238 14.334 22.94 14.3219 22.94 13.477C22.94 13.074 23.194 12.637 23.898 12.637H25.248V13.239H24.018C23.923 13.233 23.829 13.253 23.746 13.299C23.673 13.343 23.656 13.419 23.656 13.509C23.656 13.614 23.716 13.689 23.806 13.719C23.881 13.749 23.957 13.749 24.061 13.749L24.437 13.764C24.775 13.778 25.014 13.838 25.167 13.971C25.288 14.105 25.354 14.273 25.354 14.553C25.354 15.159 24.98 15.437 24.304 15.437H23V14.837ZM25.1579 13.9576C25.1589 13.9591 25.1599 13.9607 25.1609 13.9623C25.1628 13.9656 25.1648 13.9688 25.167 13.971C25.1718 13.9758 25.1773 13.9783 25.1826 13.9807C25.1852 13.9819 25.1877 13.983 25.1901 13.9844L25.198 13.991C25.1957 13.9881 25.193 13.9861 25.1901 13.9844L25.1579 13.9576ZM25.1579 13.9576C25.1573 13.9567 25.1566 13.9558 25.156 13.955V13.956L25.1579 13.9576ZM27.828 12.084H27.832V12.082H27.893V12.637H27.829V12.636H27.828V12.084ZM27.828 12.636H26.546C25.856 12.636 25.586 13.073 25.586 13.476C25.586 14.3208 26.2732 14.333 26.8786 14.3437C26.9181 14.3444 26.9574 14.3451 26.996 14.346C27.1 14.346 27.176 14.361 27.22 14.406C27.266 14.436 27.296 14.512 27.296 14.586C27.296 14.656 27.262 14.724 27.206 14.766C27.161 14.822 27.07 14.836 26.936 14.836H25.648V15.441H26.935C27.355 15.441 27.669 15.323 27.835 15.081H27.865C27.955 14.947 28 14.781 28 14.558C28 14.318 27.955 14.168 27.865 14.032V14.03V14.025C27.8511 14.0134 27.8402 14.0023 27.8297 13.9915C27.8174 13.9789 27.8056 13.9668 27.79 13.955C27.64 13.802 27.4 13.74 27.026 13.73L26.666 13.718C26.546 13.718 26.472 13.711 26.396 13.688C26.306 13.658 26.246 13.583 26.246 13.478C26.246 13.388 26.276 13.318 26.336 13.274C26.412 13.229 26.486 13.224 26.606 13.224H27.829V12.637H27.828V12.636ZM22.597 12.625V13.208L21.028 13.209V13.719H22.56V14.303H21.027V14.873H22.597V15.458H20.362V12.625H22.597ZM18.195 7.787H17.51L17.511 10.6H18.195V7.787ZM17.119 8.549L17.126 8.543L17.127 8.542C17.127 8.992 16.827 9.222 16.655 9.292C16.783 9.339 16.895 9.422 16.985 9.529C17.079 9.67 17.095 9.795 17.095 10.045V10.598H16.418V10.244C16.418 10.2277 16.4181 10.2108 16.4183 10.1933C16.4196 10.0286 16.4213 9.81898 16.311 9.696C16.214 9.606 16.064 9.576 15.824 9.576H15.104V10.61H14.43V7.79H15.969C16.309 7.79 16.562 7.8 16.779 7.925C16.989 8.049 17.119 8.235 17.119 8.549ZM16.256 8.939H16.271V8.938C16.358 8.892 16.405 8.794 16.405 8.672C16.405 8.55 16.345 8.462 16.255 8.422C16.165 8.376 16.045 8.372 15.925 8.372H15.1V8.995H15.926C16.061 8.995 16.166 8.993 16.256 8.939ZM20.552 8.373H19.92H19.919C19.675 8.373 19.536 8.403 19.403 8.538C19.289 8.658 19.209 8.883 19.209 9.168C19.209 9.47 19.27 9.68 19.395 9.83C19.501 9.934 19.686 9.964 19.863 9.964H20.163L21.106 7.744H22.11L23.243 10.4V7.789H24.263L25.443 9.749V7.786H26.127V10.599L26.125 10.597H25.175L23.903 8.487V10.597H22.543L22.281 9.97H20.891L20.636 10.597H19.856C19.531 10.597 19.118 10.525 18.886 10.287C18.649 10.046 18.526 9.725 18.526 9.213C18.526 8.793 18.602 8.403 18.888 8.103C19.104 7.878 19.444 7.773 19.908 7.773H20.552V8.373ZM22.052 9.383L21.588 8.265L21.122 9.385H22.052V9.383ZM6.634 10.598L6.38 9.97L4.99 9.971L4.73 10.597H4.01L5.208 7.787H6.205L7.343 10.45V7.787H8.435L9.311 9.692L10.118 7.788H11.234V10.598H10.544L10.529 8.396L9.556 10.598H8.972L8 8.393V10.598H6.634ZM6.152 9.383L5.692 8.265H5.691L5.234 9.385H6.149L6.152 9.383ZM13.714 12.62H15.856L15.855 12.621C16.385 12.621 16.983 12.771 16.983 13.551L16.989 13.554C16.989 14.335 16.419 14.499 15.819 14.499H14.981V15.439H13.679L12.855 14.509L12 15.441H9.346V12.621H12.039L12.864 13.543L13.714 12.62ZM11.67 14.853L11.656 14.851H10.02V14.294H11.49V13.72H10.02V13.21H11.7L12.433 14.03L11.67 14.853ZM13.282 14.036L14.312 15.183V15.181V12.928L13.282 14.036ZM14.98 13.925H15.865V13.924C16.135 13.924 16.285 13.795 16.285 13.552C16.285 13.306 16.105 13.208 15.865 13.208H14.98V13.925ZM13.967 7.787V8.373H12.4V8.88H13.927V9.456H12.4V10.02H13.967V10.6H11.73V7.787H13.967Z" fill="#2E77BC"></path>
    </g>
    <defs>
      <clipPath id="clip0_881_750">
        <rect width="32" height="22" fill="white"></rect>
      </clipPath>
    </defs>
  </symbol>

  <symbol fill="#1A1F71" xmlns="http://www.w3.org/2000/svg" viewBox="0 0 24 8" id="visa">
    <path d="M9.112 0.138L5.97 7.634H3.92L2.374 1.651C2.28 1.283 2.199 1.148 1.913 0.993C1.447 0.74 0.677 0.503 0 0.355L0.046 0.138H3.346C3.56165 0.137784 3.77027 0.214665 3.93421 0.354765C4.09815 0.494865 4.2066 0.688954 4.24 0.902L5.057 5.24L7.075 0.138H9.112ZM17.145 5.187C17.153 3.208 14.409 3.099 14.428 2.215C14.434 1.946 14.69 1.66 15.25 1.587C15.9063 1.52467 16.5672 1.64076 17.163 1.923L17.503 0.333C16.923 0.114945 16.3087 0.00217662 15.689 0C13.772 0 12.423 1.02 12.411 2.479C12.399 3.558 13.374 4.159 14.109 4.519C14.865 4.886 15.119 5.122 15.115 5.45C15.11 5.954 14.513 6.175 13.955 6.184C12.98 6.199 12.415 5.921 11.963 5.711L11.612 7.353C12.065 7.561 12.901 7.743 13.768 7.751C15.805 7.751 17.138 6.745 17.145 5.187ZM22.206 7.634H24L22.435 0.138H20.779C20.6021 0.136361 20.4287 0.187919 20.2814 0.285989C20.1341 0.384059 20.0197 0.524116 19.953 0.688001L17.044 7.634H19.08L19.485 6.514H21.973L22.206 7.634ZM20.043 4.978L21.063 2.163L21.651 4.978H20.043ZM11.883 0.138L10.28 7.634H8.34L9.945 0.138H11.883Z" fill="#1A1F71"></path>
  </symbol>

  <symbol fill="none" xmlns="http://www.w3.org/2000/svg" viewBox="0 0 32 22" id="amazon-pay">
    <path d="M18.3781 4.46426C18.0049 4.14328 17.4251 3.98254 16.638 3.98254C16.2485 3.98254 15.859 4.01785 15.4696 4.08738C15.0795 4.1576 14.7524 4.25011 14.4872 4.36559C14.3879 4.40717 14.3212 4.45004 14.2881 4.4953C14.255 4.54065 14.2381 4.62132 14.2381 4.73621V5.06963C14.2381 5.21793 14.2918 5.29243 14.3998 5.29243C14.436 5.29193 14.4718 5.28565 14.5059 5.27383C14.5433 5.2614 14.5746 5.25145 14.5989 5.2428C15.2374 5.05341 15.8459 4.95842 16.4264 4.95842C16.9232 4.95842 17.2715 5.04914 17.4706 5.23096C17.6697 5.41229 17.769 5.72522 17.769 6.17034V6.98608C17.1891 6.84583 16.6667 6.7762 16.2023 6.7762C15.4733 6.7762 14.8935 6.95564 14.4623 7.31392C14.0315 7.67211 13.8156 8.15264 13.8156 8.75422C13.8156 9.31542 13.9897 9.76183 14.338 10.0958C14.6857 10.4299 15.1581 10.5962 15.7548 10.5962C16.1112 10.5962 16.4695 10.526 16.8302 10.3864C17.191 10.2467 17.5199 10.048 17.8182 9.79287L17.8807 10.2007C17.9057 10.3572 17.9967 10.4354 18.1547 10.4354H18.689C18.8544 10.4354 18.938 10.3529 18.938 10.1884V5.96046C18.9374 5.28438 18.7508 4.78584 18.3781 4.46426ZM17.769 9.03979C17.4956 9.24589 17.2097 9.40236 16.9114 9.50978C16.613 9.61721 16.3272 9.67062 16.0538 9.67062C15.7305 9.67062 15.4821 9.58607 15.3079 9.41728C15.1338 9.24838 15.047 9.00747 15.047 8.69404C15.047 7.97688 15.5152 7.6181 16.4514 7.6181C16.6667 7.6181 16.8883 7.63302 17.1161 7.66157C17.3439 7.69071 17.5617 7.7299 17.769 7.77894V9.03979ZM12.7726 5.86428C12.6522 5.46441 12.4806 5.12423 12.2565 4.84423C12.033 4.56423 11.7596 4.34938 11.4363 4.20107C11.1136 4.05266 10.7529 3.97876 10.3547 3.97876C9.98201 3.97876 9.61691 4.04839 9.26111 4.18864C8.90481 4.32889 8.56901 4.53508 8.25381 4.80693L8.19201 4.41085C8.16701 4.24633 8.07151 4.16377 7.90551 4.16377H7.35871C7.19331 4.16377 7.11031 4.24633 7.11031 4.41085V12.7325C7.11031 12.8977 7.19331 12.9796 7.35871 12.9796H8.09211C8.25811 12.9796 8.34051 12.8971 8.34051 12.7325V9.83942C8.87921 10.3255 9.52151 10.5689 10.2673 10.5689C10.673 10.5689 11.0419 10.4882 11.3733 10.328C11.7047 10.1673 11.9862 9.94247 12.2183 9.65381C12.4506 9.36575 12.6309 9.01562 12.7589 8.60273C12.8875 8.19054 12.9518 7.72861 12.9518 7.21764C12.953 6.71533 12.8925 6.26404 12.7726 5.86428ZM9.98201 9.57931C9.41781 9.57931 8.87102 9.38187 8.34111 8.98578V5.53643C8.86292 5.15716 9.41842 4.96777 10.0071 4.96777C11.1342 4.96777 11.6978 5.73885 11.6978 7.27971C11.6972 8.81321 11.1255 9.57931 9.98201 9.57931ZM22.9825 11.5319L25.7175 4.6077C25.775 4.46745 25.8043 4.36867 25.8043 4.31088C25.8043 4.21221 25.7463 4.16258 25.6302 4.16258H24.9342C24.8013 4.16258 24.7108 4.18366 24.6602 4.22464C24.6103 4.26622 24.561 4.35694 24.5111 4.49719L22.8327 9.29433L21.0926 4.49719C21.0426 4.35694 20.9933 4.26622 20.9434 4.22464C20.8934 4.18366 20.8024 4.16258 20.6694 4.16258H19.9235C19.8075 4.16258 19.7494 4.21221 19.7494 4.31088C19.7494 4.36858 19.7781 4.46735 19.8362 4.6077L22.2354 10.4932L21.9994 11.124C21.8584 11.52 21.7011 11.792 21.527 11.9404C21.3529 12.0887 21.1082 12.1626 20.7936 12.1626C20.6526 12.1626 20.5408 12.1539 20.4584 12.1377C20.3754 12.1216 20.313 12.1129 20.2718 12.1129C20.1476 12.1129 20.0852 12.1911 20.0852 12.3476V12.6692C20.0852 12.7847 20.1058 12.8691 20.1476 12.9225C20.1888 12.9758 20.255 13.0156 20.3467 13.0399C20.5533 13.097 20.7899 13.1267 21.0551 13.1267C21.5276 13.1267 21.9108 13.0032 22.2048 12.7555C22.5 12.509 22.7591 12.1005 22.9825 11.5319ZM25.6938 15.9316C23.0662 17.8606 19.2569 18.8862 15.9764 18.8862C11.3789 18.8862 7.23891 17.1957 4.10631 14.382C3.86031 14.1611 4.07941 13.8593 4.37531 14.0307C7.75511 15.9869 11.935 17.1652 16.2523 17.1652C19.1646 17.1652 22.3659 16.5643 25.3119 15.3214C25.7556 15.1333 26.1281 15.6119 25.6938 15.9316ZM26.7867 14.69C27.1231 15.1184 26.4129 16.8823 26.0957 17.67C25.9997 17.9084 26.2057 18.0047 26.4228 17.824C27.8322 16.6513 28.1967 14.1934 27.9083 13.8382C27.6218 13.4862 25.1577 13.1832 23.6535 14.2337C23.4219 14.3952 23.4619 14.6187 23.7184 14.5875C24.5654 14.4871 26.4509 14.2617 26.7867 14.69Z" fill="#FF9900"></path>
  </symbol>

  <symbol fill="none" xmlns="http://www.w3.org/2000/svg" viewBox="0 0 26 16" id="master-card">
    <path d="M16.2984 2.23462H9.68457V13.7655H16.2984V2.23462Z" fill="#FF5F00"></path>
    <path d="M10.1045 8.00007C10.1035 6.88956 10.3628 5.79337 10.863 4.7945C11.3632 3.79562 12.0911 2.92024 12.9915 2.23462C11.8764 1.38428 10.5373 0.855475 9.12707 0.708631C7.71688 0.561786 6.29255 0.802826 5.01688 1.40421C3.74122 2.0056 2.66568 2.94306 1.91322 4.10944C1.16075 5.27582 0.761719 6.62406 0.761719 8.00007C0.761719 9.37607 1.16075 10.7243 1.91322 11.8907C2.66568 13.0571 3.74122 13.9945 5.01688 14.5959C6.29255 15.1973 7.71688 15.4384 9.12707 15.2915C10.5373 15.1447 11.8764 14.6159 12.9915 13.7655C12.0911 13.0799 11.3632 12.2045 10.863 11.2056C10.3629 10.2068 10.1035 9.11058 10.1045 8.00007Z" fill="#EB001B"></path>
    <path d="M25.2211 8.00007C25.2212 9.37605 24.8222 10.7243 24.0697 11.8907C23.3173 13.0571 22.2418 13.9945 20.9662 14.5959C19.6905 15.1973 18.2662 15.4384 16.8561 15.2915C15.4459 15.1447 14.1067 14.6159 12.9917 13.7655C13.8913 13.0792 14.6186 12.2037 15.1187 11.205C15.6188 10.2062 15.8787 9.1104 15.8787 8.00007C15.8787 6.88973 15.6188 5.79389 15.1187 4.79517C14.6186 3.79645 13.8913 2.92093 12.9917 2.23461C14.1067 1.38428 15.4459 0.855471 16.8561 0.708629C18.2662 0.561786 19.6905 0.802837 20.9662 1.40423C22.2418 2.00562 23.3173 2.94308 24.0697 4.10946C24.8222 5.27585 25.2212 6.62408 25.2211 8.00007Z" fill="#F79E1B"></path>
    <path d="M24.4999 12.5442V12.3081H24.598V12.26H24.3481V12.3081H24.4463V12.5442H24.4999ZM24.985 12.5442V12.2595H24.9084L24.8203 12.4553L24.7322 12.2595H24.6556V12.5442H24.7097V12.3295L24.7923 12.5146H24.8484L24.931 12.329V12.5442H24.985Z" fill="#F79E1B"></path>
  </symbol>

  <symbol fill="none" xmlns="http://www.w3.org/2000/svg" viewBox="0 0 38 39" id="logo-small">
    <path d="M34 25.262V22.405L21.25 15.262V7.4049C21.25 6.21921 20.245 3.8335 19 3.8335C17.755 3.8335 16.75 6.21921 16.75 7.4049V15.262L4 22.405V25.262L16.75 21.6907V29.5478L13 31.6907V33.8335L19 32.405L25 33.8335V31.6907L21.25 29.5478V21.6907L34 25.262Z" fill="#11397E"></path>
    <path d="M1 19.3335C1 9.39705 9.06356 1.3335 19 1.3335C28.9366 1.3335 37 9.39705 37 19.3335C37 29.2701 28.9366 37.3335 19 37.3335C9.06355 37.3335 1 29.2701 1 19.3335Z" stroke="#11397E" stroke-width="2"></path>
  </symbol>

  <symbol version="1.1" id="not-found-page-icon" xmlns="http://www.w3.org/2000/svg" xmlns:xlink="http://www.w3.org/1999/xlink" x="0px" y="0px" xml:space="preserve" viewBox="0 0 392.282 392.282" style="enable-background:new 0 0 392.282 392.282;">
    <path style="fill:#CCD33D;" d="M154.524,254.296c-32,0-54.84-20.32-71.48-35.16c-10.52-9.4-19.6-17.48-26.92-17.52h-8.4l0.48-8.4
	c4.052-72.164,63.72-128.624,136-128.68c2.828,0,5.628,0.08,8.4,0.24h2.84l2.08,1.92c22.44,20.68,22.88,43.6,1.36,68
	c-9.172,9.888-19.036,19.112-29.52,27.6c-13.88,12-27,22.96-31.44,32.96c-2.348,3.952-2.424,8.856-0.2,12.88
	c2.72,4.88,9.24,9.68,19.4,14.16c7.836,3.072,15.204,7.236,21.88,12.36h1.08l4.84,6.24l-2.56,9.88h-4.76
	c-6.636,2.3-13.62,3.436-20.64,3.36L154.524,254.296z"></path>
    <path style="fill:#73DDCD;"  d="M184.324,337.136c-73.42,0.004-133.656-58.144-136.24-131.52l-0.28-8.52l8.52,0.24
	c9.24,0.24,18.28,8.32,29.72,18.52c17,15.16,38.12,34,68.4,34h2.4c6.956,0.128,13.868-1.096,20.36-3.6c1.52-0.8,2.4-1.64,2.6-2.48
	s0.32-1.28-1.32-3.28s-7.2-7-23.12-14.04c-7.524-2.852-14.172-7.624-19.28-13.84c-4.092-5.472-4.804-12.764-1.84-18.92
	c4.88-10.96,17.68-21.88,32.56-34.52c10.26-8.328,19.924-17.364,28.92-27.04c17.76-20.24,20-36,8-52l-12.56-16.8l20.56,4
	c19.992,4.016,38.82,12.496,55.08,24.8l4.44,3.36l-10.4,34.44l11.04,11.04l16.2-29.4l7.36,10.36c10.58,14.82,18.064,31.62,22,49.4
	l1.32,6.04l-5.48,2.76c-21.28,10.8-22,16.92-23.36,28c-1.48,12-3.48,28.88-39.16,58.64c-9.848,7.536-18.248,16.792-24.8,27.32
	c-5.212,9.22-7.012,19.984-5.08,30.4l1.24,7.64l-7.36,1.68C204.772,336.056,194.564,337.172,184.324,337.136z"></path>
    <path style="fill:#FFFFFF;" d="M326.364,140.656l6.76-22.36l-28.64-26.96l-31.6,57l-17.08-17.08l20.28-66.76l-24.32-22.92
	c-5.152-4.628-6.836-11.996-4.2-18.4c2.076-4.88,5.96-8.764,10.84-10.84h0.4c1.864-0.712,3.844-1.08,5.84-1.08
	c4.58,0.084,8.92,2.052,12,5.44l22.88,24.28l66.84-20.2l17.08,17.08l-57,31.48l26.96,28.6l22.4-6.76l13.88,13.88l-27.16,15.08
	l-4.84,2.4l-2.2,4.48l-15.4,27.52L326.364,140.656z"></path>
    <path style="fill:#CCD33D;" d="M216.084,324.136c-1.716-11.02,0.344-22.296,5.84-32c6.9-11.064,15.764-20.768,26.16-28.64
	c34.32-28.64,36-43.68,37.6-55.8c1.32-10.92,3.68-19.4,22.32-29.64l10.36-5.68l1.28,11.76c0.672,5.548,1.004,11.132,1,16.72
	c0.08,36.188-14.324,70.9-40,96.4c-15.168,15.144-33.676,26.516-54.04,33.2l-9.08,2.96L216.084,324.136z"></path>
    <g>
      <path style="fill:#2B1B19;" d="M54.244,323.496c-2.34,2.344-2.34,6.136,0,8.48c3.948,4,8.116,7.78,12.48,11.32
		c2.34,2.344,6.14,2.348,8.484,0.004s2.348-6.14,0.004-8.484c-0.156-0.156-0.32-0.304-0.492-0.44l-0.4-0.32
		c-4-3.32-8-6.88-11.68-10.56C60.312,321.208,56.576,321.208,54.244,323.496z"></path>
      <path style="fill:#2B1B19;" d="M6.284,184.936h0.76c3.036,0,5.596-2.264,5.96-5.28c0.64-5.2,1.52-10.44,2.64-15.52
		c1.236-3.076-0.252-6.568-3.328-7.804s-6.568,0.252-7.804,3.328c-0.252,0.624-0.396,1.288-0.428,1.96
		c-1.2,5.48-2.12,11.04-2.8,16.6C0.852,181.44,3.072,184.424,6.284,184.936z"></path>
      <path style="fill:#2B1B19;" d="M28.084,287.376c-2.848,1.692-3.784,5.376-2.088,8.224c0.004,0.004,0.008,0.012,0.008,0.016l0,0
		c2.88,4.8,6,9.52,9.32,14.04c2.048,2.604,5.82,3.06,8.424,1.012c2.48-1.948,3.028-5.484,1.256-8.092c-3.08-4.24-6-8.64-8.68-13.12
		c-1.692-2.848-5.376-3.784-8.224-2.088C28.096,287.368,28.088,287.372,28.084,287.376z"></path>
      <path style="fill:#2B1B19;" d="M11.244,245.816c-3.148,0.964-4.936,4.284-4,7.44c1.6,5.36,3.44,10.72,5.52,16
		c1.248,3.124,4.796,4.648,7.92,3.4c3.124-1.248,4.648-4.796,3.4-7.92l0,0c-1.92-4.84-3.68-9.84-5.16-14.88
		c-0.964-3.148-4.284-4.936-7.44-4L11.244,245.816z"></path>
      <path style="fill:#2B1B19;" d="M16.084,141.176c3.076,1.228,6.568-0.272,7.796-3.348c0-0.004,0.004-0.008,0.004-0.012l0,0
		c1.884-4.9,4.032-9.696,6.44-14.36c1.492-2.96,0.3-6.568-2.66-8.06s-6.568-0.3-8.06,2.66l0,0c-2.52,5-4.84,10.16-6.88,15.4
		C11.548,136.516,13.044,139.952,16.084,141.176z"></path>
      <path style="fill:#2B1B19;" d="M7.084,229.696h1c3.288-0.416,5.616-3.416,5.204-6.704c0-0.004,0-0.012-0.004-0.016l0,0
		c-0.64-5.2-1.08-10.48-1.28-15.68c-0.12-3.312-2.908-5.9-6.22-5.78c-3.312,0.12-5.9,2.908-5.78,6.22
		c0.092,5.624,0.548,11.236,1.36,16.8C1.768,227.416,4.18,229.588,7.084,229.696z"></path>
      <path style="fill:#2B1B19;" d="M150.204,31.696h1.16c5.16-1,10.4-1.76,15.6-2.28c3.332-0.112,5.948-2.904,5.836-6.236
		s-2.904-5.948-6.236-5.836c-0.256,0.008-0.508,0.032-0.76,0.072c-5.56,0.56-11.16,1.36-16.68,2.44
		c-3.336,0.084-5.972,2.856-5.888,6.188c0.084,3.336,2.856,5.972,6.188,5.888c0.272-0.008,0.548-0.032,0.816-0.076L150.204,31.696z"></path>
      <path style="fill:#2B1B19;" d="M39.484,102.376c1.932,0.008,3.748-0.916,4.88-2.48c3.08-4.24,6.36-8.4,9.8-12.32
		c2.304-2.412,2.212-6.236-0.2-8.54s-6.236-2.212-8.54,0.2c-0.104,0.108-0.204,0.224-0.3,0.34c-3.68,4-7.2,8.64-10.48,13.2
		c-1.944,2.684-1.344,6.436,1.34,8.38c1.02,0.736,2.244,1.136,3.5,1.14L39.484,102.376z"></path>
      <path style="fill:#2B1B19;" d="M210.124,30.416h0.92c3.312,0.244,6.196-2.248,6.44-5.56s-2.248-6.196-5.56-6.44
		c-5.52-0.84-11.16-1.44-16.76-1.76c-3.312-0.2-6.16,2.328-6.36,5.64s2.328,6.16,5.64,6.36
		C199.724,29.056,204.964,29.616,210.124,30.416z"></path>
      <path style="fill:#2B1B19;" d="M73.884,68.376c4-3.36,8.24-6.56,12.56-9.52c2.668-1.964,3.24-5.72,1.276-8.388
		c-1.876-2.548-5.412-3.2-8.076-1.492c-4.6,3.16-9.12,6.6-13.44,10.16c-2.552,2.12-2.9,5.908-0.78,8.46
		C67.544,70.148,71.332,70.496,73.884,68.376L73.884,68.376z"></path>
      <path style="fill:#2B1B19;" d="M107.724,45.616c0.888-0.008,1.76-0.212,2.56-0.6c4.72-2.24,9.6-4.28,14.52-6.08
		c3.148-1.036,4.856-4.428,3.82-7.576c-0.964-2.92-3.976-4.64-6.98-3.984l-0.84,0.28c-5.292,1.88-10.472,4.056-15.52,6.52
		c-3.004,1.396-4.308,4.968-2.908,7.972c0.988,2.124,3.124,3.48,5.468,3.468C107.844,45.616,107.724,45.616,107.724,45.616z"></path>
      <path style="fill:#2B1B19;" d="M179.404,373.376c-3.312-0.088-6.072,2.528-6.16,5.84s2.528,6.072,5.84,6.16h5c4,0,8,0,11.76-0.36
		c3.312-0.208,5.828-3.068,5.62-6.38c-0.208-3.312-3.068-5.828-6.38-5.62C189.868,373.412,184.632,373.532,179.404,373.376z"></path>
      <path style="fill:#2B1B19;" d="M350.324,266.576c3.12,1.12,6.556-0.504,7.672-3.62c0.004-0.008,0.004-0.012,0.008-0.02l0,0
		c1.88-5.28,3.52-10.68,4.92-16c0.992-3.16-0.764-6.528-3.928-7.524s-6.528,0.764-7.524,3.928c-0.08,0.26-0.144,0.528-0.192,0.796
		c-1.28,5.08-2.84,10.12-4.6,15.04C345.74,262.216,347.34,265.468,350.324,266.576z"></path>
      <path style="fill:#2B1B19;" d="M360.084,177.816h1c3.268-0.532,5.488-3.612,4.96-6.88c-0.92-5.52-2.08-11.08-3.48-16.48
		c-0.96-3.172-4.308-4.968-7.48-4.008c-3.008,0.908-4.804,3.984-4.12,7.048c1.32,5.04,2.4,10.24,3.28,15.4
		C354.76,175.724,357.212,177.788,360.084,177.816z"></path>
      <path style="fill:#2B1B19;" d="M364.764,17.096l-63.72,19.28l-21.44-22.76c-5.464-6.32-14.36-8.428-22.08-5.24h-0.36
		c-5.82,2.396-10.444,7.02-12.84,12.84c-0.604,1.52-1.032,3.104-1.28,4.72l-2.44-0.84c-3.16-1.016-6.544,0.72-7.56,3.88
		s0.72,6.544,3.88,7.56l0,0c3.08,1,6.16,2.12,9.24,3.28c0.928,1.452,2.012,2.792,3.24,4l22.68,21.44l-6.48,21.4l0,0
		c-63.38-45.208-151.404-30.48-196.616,32.9s-30.48,151.404,32.9,196.616s151.404,30.48,196.616-32.9
		c36.052-50.54,34.792-118.716-3.1-167.896l10.24-18.48l23.76,22.4l-5.72,18.92c-0.708,2.064-0.2,4.352,1.32,5.92
		c0,0,11.72,11.6,12,12c2.756,1.636,6.312,0.724,7.948-2.028c0.016-0.032,0.036-0.06,0.052-0.092l0,0l15.64-28.68l28.24-15.4
		c2.928-1.348,4.212-4.816,2.86-7.748c-0.284-0.612-0.668-1.172-1.14-1.652l-10.52-11.16c-1.52-1.516-3.748-2.068-5.8-1.44
		l-19.12,5.8l-22.4-23.76l50.28-28c2.928-1.348,4.212-4.816,2.86-7.748c-0.284-0.612-0.668-1.172-1.14-1.652l-14.12-14.12
		C369.088,16.948,366.824,16.424,364.764,17.096z M93.084,109.976c24.136-24.124,56.876-37.652,91-37.6c2.668,0,5.332,0.08,8,0.24
		c22.68,20.92,16,40,0.8,57.2c-8.968,9.512-18.592,18.388-28.8,26.56c-14.76,12.56-28.52,24.28-33.72,36
		c-6.16,13.92-1.64,26.52,23.24,37.52c12.44,5.52,19.2,9.8,21.84,13.04c0.36,0.44,0.72,0,0.64,0c-0.276,0.02-0.548,0.088-0.8,0.2
		c-6.024,2.292-12.436,3.396-18.88,3.24c-30.16,1.28-51.64-18-68.32-32.92c-12-10.68-21.96-19.56-32.32-19.64
		C57.456,162.228,70.744,132.372,93.084,109.976z M313.084,201.096c-0.04,55.792-35.952,105.232-89,122.52
		c-1.488-9.376,0.248-18.976,4.92-27.24c6.34-10.18,14.468-19.124,24-26.4c36.92-30.8,39-48,40.6-61.24
		c1-8.36,1.76-14.6,18.28-23.68c0.66,5.308,0.996,10.652,1,16L313.084,201.096z M305.604,157.816c1.788,5.036,3.256,10.18,4.4,15.4
		c-25.16,12.8-26.28,21.92-27.8,34.36c-1.36,11.2-3.12,25.84-36.48,53.68c-10.684,8.176-19.772,18.248-26.8,29.72
		c-6.128,10.832-8.252,23.48-6,35.72c-69.388,15.86-138.496-27.528-154.36-96.92c-1.816-7.936-2.872-16.024-3.16-24.16
		c6.36,0,14.6,7.56,24.72,16.56c18.32,16.36,41.76,37.24,76.68,36c8.228,0.14,16.396-1.412,24-4.56
		c3.204-1.416,5.632-4.164,6.64-7.52c0.852-3.744-0.228-7.664-2.88-10.44c-3.76-4.6-12-10.04-26.16-16.36
		c-16.92-7.48-20.6-14.76-17.28-22.2c4-9.36,16.88-20,30.56-32c10.66-8.616,20.7-17.972,30.04-28c16.72-19.04,25.32-40,8.32-62.52
		c18.892,3.864,36.668,11.944,52,23.64l-9.2,30.36c-0.68,2.08-0.14,4.364,1.4,5.92c0,0,14.92,14.8,15.4,15.08
		c2.756,1.636,6.312,0.724,7.948-2.028c0.016-0.032,0.036-0.06,0.052-0.092l0,0l11.64-21.04
		C296.144,136.08,301.636,146.648,305.604,157.816z M320.484,63.416c-2.832,1.5-3.908,5.012-2.408,7.84
		c0.028,0.052,0.056,0.108,0.088,0.16l0,0c0.24,0.44,30.84,33,30.84,33c1.516,1.604,3.812,2.208,5.92,1.56l0,0l19.32-5.84l3,3
		l-18,9.96l-5.16,2.56c-1.156,0.572-2.084,1.516-2.64,2.68l0,0l-2.56,5.2l-9.96,18l-2.92-3.2l5.8-19.16
		c0.676-2.244-0.068-4.676-1.88-6.16l-31.56-29.68c-2.264-2.264-5.936-2.264-8.2,0l0,0c-0.4,0.44-28.8,51.6-28.8,51.6l-6.2-6.2
		l19.36-63.8c0.692-2.256-0.048-4.708-1.88-6.2l-25.28-23.4c-2.78-2.356-3.704-6.244-2.28-9.6c1.276-2.908,3.604-5.22,6.52-6.48h0.2
		c3.312-1.28,7.072-0.316,9.36,2.4l24,25.36c1.508,1.62,3.804,2.24,5.92,1.6l0,0l64-19.32l6.2,6.2L320.484,63.416z"></path>
      <path style="fill:#2B1B19;" d="M343.524,281.656c-2.868-1.5-6.404-0.456-8,2.36c-2.52,4.6-5.28,9.12-8.24,13.44
		c-1.912,2.716-1.256,6.468,1.46,8.38s6.468,1.256,8.38-1.46c3.12-4.64,6.08-9.48,8.8-14.36c1.672-2.852,0.724-6.516-2.12-8.2
		L343.524,281.656z"></path>
      <path style="fill:#2B1B19;" d="M368.084,217.776c0.52-5.56,0.76-11.2,0.76-16.8v-0.84c-0.02-3.3-2.7-5.96-6-5.96l0,0
		c-3.312-0.088-6.068,2.524-6.156,5.836c0,0.04,0,0.08-0.004,0.124c0,0,0,0,0,0.24v0.68c0,5.24-0.24,10.52-0.72,15.76
		c-0.3,3.3,2.132,6.22,5.432,6.52c0.004,0,0.004,0,0.008,0h0.56C365.16,223.408,367.852,220.964,368.084,217.776z"></path>
      <path style="fill:#2B1B19;" d="M136.724,366.856c-3.124-1.104-6.556,0.536-7.66,3.66c-1.104,3.124,0.536,6.556,3.66,7.66h0.72
		c5.36,1.52,10.88,2.84,16.4,4h1.12c3.292,0.536,6.396-1.7,6.932-4.992s-1.7-6.396-4.992-6.932
		c-0.272-0.044-0.544-0.068-0.816-0.076C146.9,369.396,141.768,368.288,136.724,366.856z"></path>
      <path style="fill:#2B1B19;" d="M237.644,365.016c-4.96,1.664-10.024,3-15.16,4c-3.236,0.728-5.268,3.944-4.54,7.18
		s3.944,5.268,7.18,4.54c5.44-1.24,10.92-2.76,16.24-4.48c3.108-1.144,4.7-4.596,3.556-7.704c-1.084-2.948-4.256-4.556-7.276-3.696
		L237.644,365.016L237.644,365.016z"></path>
      <path style="fill:#2B1B19;" d="M96.964,349.816c-2.748-1.852-6.476-1.128-8.328,1.62s-1.128,6.476,1.62,8.328
		c0.2,0.136,0.412,0.26,0.628,0.368c4.84,2.84,9.84,5.48,14.92,8c3.004,1.412,6.588,0.124,8-2.88s0.124-6.588-2.88-8
		C106.164,354.936,101.484,352.376,96.964,349.816z"></path>
      <path style="fill:#2B1B19;" d="M309.964,318.976c-3.56,3.868-7.324,7.54-11.28,11c-2.476,2.208-2.688,6.004-0.48,8.48
		c2.208,2.476,6.004,2.688,8.48,0.48c4-3.72,8.24-7.68,12-11.76c2.236-2.448,2.064-6.244-0.384-8.476
		c-2.404-2.196-6.12-2.072-8.376,0.276H309.964z"></path>
      <path style="fill:#2B1B19;" d="M276.684,346.576c-4.4,2.8-9,5.44-13.64,8c-2.948,1.512-4.112,5.132-2.6,8.08s5.132,4.112,8.08,2.6
		c4.96-2.56,9.88-5.4,14.6-8.4c2.752-1.848,3.484-5.572,1.64-8.324c-1.716-2.556-5.084-3.4-7.8-1.956H276.684z"></path>
    </g>
    <g></g>
    <g></g>
    <g></g>
    <g></g>
    <g></g>
    <g></g>
    <g></g>
    <g></g>
    <g></g>
    <g></g>
    <g></g>
    <g></g>
    <g></g>
    <g></g>
    <g></g>
  </symbol>
</svg>
